<mxfile host="Electron" modified="2024-08-14T14:22:43.274Z" agent="Mozilla/5.0 (Macintosh; Intel Mac OS X 10_15_7) AppleWebKit/537.36 (KHTML, like Gecko) draw.io/21.3.7 Chrome/112.0.5615.204 Electron/24.5.0 Safari/537.36" etag="kQ41-uIxy3VNF8PKzFXU" version="21.3.7" type="device">
  <diagram name="페이지-1" id="PZ4Ly7NY0Vj5uHgSHZeZ">
    <mxGraphModel dx="1434" dy="854" grid="1" gridSize="10" guides="1" tooltips="1" connect="1" arrows="1" fold="1" page="1" pageScale="1" pageWidth="827" pageHeight="1169" math="0" shadow="0">
      <root>
        <mxCell id="0" />
        <mxCell id="1" parent="0" />
        <mxCell id="6nN6p0PN9mqSmsRpWMdi-3" value="Javascript Single-Threaded(Main-Threaded) Process" style="rounded=0;whiteSpace=wrap;html=1;fontStyle=1;fontSize=15;verticalAlign=top;spacingTop=4;" parent="1" vertex="1">
          <mxGeometry x="200" y="300" width="500" height="630" as="geometry" />
        </mxCell>
        <mxCell id="yXbecYRNLDb3J9M6EiNR-74" value="" style="rounded=1;whiteSpace=wrap;html=1;arcSize=2;strokeWidth=5;strokeColor=#4D4D4D;" vertex="1" parent="1">
          <mxGeometry x="220" y="350" width="460" height="530" as="geometry" />
        </mxCell>
        <mxCell id="yXbecYRNLDb3J9M6EiNR-1" value="Terminate the Main-Threaded" style="text;html=1;strokeColor=none;fillColor=none;align=center;verticalAlign=middle;whiteSpace=wrap;rounded=0;fontStyle=1;fontSize=15;" vertex="1" parent="1">
          <mxGeometry x="327.5" y="890" width="245" height="30" as="geometry" />
        </mxCell>
        <mxCell id="yXbecYRNLDb3J9M6EiNR-29" value="" style="group" vertex="1" connectable="0" parent="1">
          <mxGeometry x="257" y="420" width="110" height="100" as="geometry" />
        </mxCell>
        <mxCell id="6nN6p0PN9mqSmsRpWMdi-2" value="Call Stack" style="rounded=1;whiteSpace=wrap;html=1;fillColor=#dae8fc;strokeColor=#6c8ebf;arcSize=5;container=0;fontStyle=1;verticalAlign=top;spacingTop=4;fontSize=16;" parent="yXbecYRNLDb3J9M6EiNR-29" vertex="1">
          <mxGeometry width="110" height="100" as="geometry" />
        </mxCell>
        <mxCell id="yXbecYRNLDb3J9M6EiNR-6" value="function" style="ellipse;whiteSpace=wrap;html=1;fillColor=#d5e8d4;strokeColor=#82b366;fontStyle=1;fontSize=14;" vertex="1" parent="yXbecYRNLDb3J9M6EiNR-29">
          <mxGeometry x="16.75" y="38.5" width="76.5" height="51" as="geometry" />
        </mxCell>
        <mxCell id="yXbecYRNLDb3J9M6EiNR-33" value="" style="group" vertex="1" connectable="0" parent="1">
          <mxGeometry x="237" y="750" width="150" height="96.67" as="geometry" />
        </mxCell>
        <mxCell id="yXbecYRNLDb3J9M6EiNR-31" value="Web API" style="shape=hexagon;perimeter=hexagonPerimeter2;whiteSpace=wrap;html=1;fixedSize=1;fillColor=#f5f5f5;strokeColor=#666666;verticalAlign=top;fontSize=16;fontStyle=1;fontColor=#333333;" vertex="1" parent="yXbecYRNLDb3J9M6EiNR-33">
          <mxGeometry y="-30" width="150" height="96.67000000000006" as="geometry" />
        </mxCell>
        <mxCell id="yXbecYRNLDb3J9M6EiNR-32" value="async function" style="ellipse;whiteSpace=wrap;html=1;fillColor=#d5e8d4;strokeColor=#82b366;fontStyle=1;fontSize=14;" vertex="1" parent="yXbecYRNLDb3J9M6EiNR-33">
          <mxGeometry x="15.219999999999999" width="119.57" height="53.94" as="geometry" />
        </mxCell>
        <mxCell id="yXbecYRNLDb3J9M6EiNR-35" value="Event Loop" style="edgeStyle=orthogonalEdgeStyle;rounded=0;orthogonalLoop=1;jettySize=auto;html=1;exitX=1;exitY=0.5;exitDx=0;exitDy=0;entryX=0.25;entryY=0;entryDx=0;entryDy=0;shape=flexArrow;endWidth=19;endSize=8;fillColor=#4D4D4D;strokeColor=#666666;strokeWidth=0;startSize=8;targetPerimeterSpacing=0;sourcePerimeterSpacing=0;labelBackgroundColor=none;fontSize=12;fontStyle=1" edge="1" parent="1" source="6nN6p0PN9mqSmsRpWMdi-2" target="yXbecYRNLDb3J9M6EiNR-11">
          <mxGeometry x="-0.1499" y="20" relative="1" as="geometry">
            <mxPoint as="offset" />
          </mxGeometry>
        </mxCell>
        <mxCell id="yXbecYRNLDb3J9M6EiNR-36" value="&lt;ol style=&quot;font-size: 12px;&quot;&gt;&lt;li style=&quot;font-size: 12px;&quot;&gt;Event Loop는 Call Stack에 function을 쌓는다.&amp;nbsp;&lt;/li&gt;&lt;li style=&quot;font-size: 12px;&quot;&gt;function이 종료되면 function은 Call Stack에서 제거된다.&lt;/li&gt;&lt;/ol&gt;" style="text;html=1;strokeColor=none;fillColor=none;align=left;verticalAlign=middle;whiteSpace=wrap;rounded=0;fontStyle=1;horizontal=1;fontSize=12;" vertex="1" parent="1">
          <mxGeometry x="218" y="369" width="374" height="40" as="geometry" />
        </mxCell>
        <mxCell id="yXbecYRNLDb3J9M6EiNR-41" value="" style="group;" vertex="1" connectable="0" parent="1">
          <mxGeometry x="430" y="570" width="223" height="95" as="geometry" />
        </mxCell>
        <mxCell id="yXbecYRNLDb3J9M6EiNR-11" value="Event Queue" style="shape=parallelogram;perimeter=parallelogramPerimeter;whiteSpace=wrap;html=1;fixedSize=1;fillColor=#fff2cc;strokeColor=#d6b656;fontSize=16;fontStyle=1;size=0;verticalAlign=top;spacingTop=4;container=0;" vertex="1" parent="yXbecYRNLDb3J9M6EiNR-41">
          <mxGeometry width="223" height="95" as="geometry" />
        </mxCell>
        <mxCell id="yXbecYRNLDb3J9M6EiNR-15" value="Fn2" style="rounded=1;whiteSpace=wrap;html=1;fillColor=#d5e8d4;strokeColor=#82b366;fontStyle=1;fontSize=13;" vertex="1" parent="yXbecYRNLDb3J9M6EiNR-41">
          <mxGeometry x="70" y="45" width="40" height="40" as="geometry" />
        </mxCell>
        <mxCell id="yXbecYRNLDb3J9M6EiNR-16" value="Callback" style="rounded=1;whiteSpace=wrap;html=1;fillColor=#d5e8d4;strokeColor=#82b366;fontStyle=1;fontSize=13;" vertex="1" parent="yXbecYRNLDb3J9M6EiNR-41">
          <mxGeometry x="120" y="45" width="80" height="40" as="geometry" />
        </mxCell>
        <mxCell id="yXbecYRNLDb3J9M6EiNR-40" value="Fn1" style="rounded=1;whiteSpace=wrap;html=1;fillColor=#d5e8d4;strokeColor=#82b366;fontStyle=1;fontSize=13;" vertex="1" parent="yXbecYRNLDb3J9M6EiNR-41">
          <mxGeometry x="20" y="45" width="40" height="40" as="geometry" />
        </mxCell>
        <mxCell id="yXbecYRNLDb3J9M6EiNR-42" value="Event Loop" style="edgeStyle=orthogonalEdgeStyle;rounded=0;orthogonalLoop=1;jettySize=auto;html=1;exitX=0;exitY=0.5;exitDx=0;exitDy=0;entryX=0.5;entryY=1;entryDx=0;entryDy=0;shape=flexArrow;endWidth=19;endSize=8;fillColor=#4D4D4D;strokeColor=#666666;strokeWidth=0;startSize=8;targetPerimeterSpacing=0;sourcePerimeterSpacing=0;labelBackgroundColor=none;fontSize=12;fontStyle=1" edge="1" parent="1" source="yXbecYRNLDb3J9M6EiNR-11" target="6nN6p0PN9mqSmsRpWMdi-2">
          <mxGeometry x="-0.1647" y="23" relative="1" as="geometry">
            <mxPoint x="50" y="595" as="sourcePoint" />
            <mxPoint x="218" y="715" as="targetPoint" />
            <mxPoint as="offset" />
          </mxGeometry>
        </mxCell>
        <mxCell id="yXbecYRNLDb3J9M6EiNR-43" value="&lt;span style=&quot;background-color: initial;&quot;&gt;Event Loop는 Call Stack이 비어 있으면 Event Queue에 있는 function을 Call Stack에 넣어 실행한다.&lt;/span&gt;" style="text;html=1;strokeColor=none;fillColor=none;align=left;verticalAlign=middle;whiteSpace=wrap;rounded=0;fontStyle=1;horizontal=1;fontSize=12;" vertex="1" parent="1">
          <mxGeometry x="240" y="672" width="330" height="40" as="geometry" />
        </mxCell>
        <mxCell id="yXbecYRNLDb3J9M6EiNR-44" value="&lt;span style=&quot;background-color: initial;&quot;&gt;Event Loop는 function을 Event Queue에 쌓는다.&lt;/span&gt;" style="text;html=1;strokeColor=none;fillColor=none;align=left;verticalAlign=middle;whiteSpace=wrap;rounded=0;fontStyle=1;horizontal=1;fontSize=12;" vertex="1" parent="1">
          <mxGeometry x="510" y="520" width="140" height="40" as="geometry" />
        </mxCell>
        <mxCell id="yXbecYRNLDb3J9M6EiNR-72" value="Event Loop" style="edgeStyle=orthogonalEdgeStyle;rounded=0;orthogonalLoop=1;jettySize=auto;html=1;exitX=0.75;exitY=1;exitDx=0;exitDy=0;entryX=1;entryY=0.5;entryDx=0;entryDy=0;shape=flexArrow;endWidth=19;endSize=8;fillColor=#4D4D4D;strokeColor=#666666;strokeWidth=0;startSize=8;targetPerimeterSpacing=0;sourcePerimeterSpacing=0;labelBackgroundColor=none;fontSize=12;fontStyle=1;startArrow=block;" edge="1" parent="1" source="yXbecYRNLDb3J9M6EiNR-16" target="yXbecYRNLDb3J9M6EiNR-31">
          <mxGeometry x="-0.0052" y="20" relative="1" as="geometry">
            <mxPoint x="470" y="770" as="sourcePoint" />
            <mxPoint x="645" y="870" as="targetPoint" />
            <mxPoint as="offset" />
          </mxGeometry>
        </mxCell>
        <mxCell id="yXbecYRNLDb3J9M6EiNR-73" value="&lt;span style=&quot;background-color: initial;&quot;&gt;Event Loop는 비동기 function을 Web Api로 보내 비동기적으로 실행하고 Callback을 Event Queue에 쌓는다. 이로 Non-Blocking이 보장된다.&lt;/span&gt;" style="text;html=1;strokeColor=none;fillColor=none;align=left;verticalAlign=middle;whiteSpace=wrap;rounded=0;fontStyle=1;horizontal=1;fontSize=12;" vertex="1" parent="1">
          <mxGeometry x="240" y="830" width="420" height="40" as="geometry" />
        </mxCell>
      </root>
    </mxGraphModel>
  </diagram>
</mxfile>
